<?xml version="1.0" standalone="no"?>
<!DOCTYPE svg PUBLIC "-//W3C//DTD SVG 20010904//EN"
 "http://www.w3.org/TR/2001/REC-SVG-20010904/DTD/svg10.dtd">
<svg version="1.0" xmlns="http://www.w3.org/2000/svg"
 width="1024.000000pt" height="1024.000000pt" viewBox="0 0 1024.000000 1024.000000"
 preserveAspectRatio="xMidYMid meet">

<g transform="translate(0.000000,1024.000000) scale(0.100000,-0.100000)"
fill="#000000" stroke="none">
<path d="M4190 8616 c-650 -168 -1266 -540 -1718 -1036 -744 -818 -1073 -1901
-912 -3010 82 -564 335 -1170 678 -1625 238 -316 537 -611 837 -827 287 -206
658 -393 968 -488 l67 -21 0 -112 c0 -176 14 -184 186 -111 49 21 120 56 158
77 l69 39 121 -16 c319 -43 615 -43 943 0 l122 16 143 -71 c79 -39 165 -76
192 -83 46 -12 49 -12 67 11 16 20 19 40 19 136 l0 113 88 27 c219 68 488 192
720 334 254 154 470 326 707 565 497 498 818 1071 980 1749 67 279 95 527 95
826 -1 480 -81 909 -252 1350 -313 808 -941 1500 -1718 1892 -240 121 -529
228 -753 279 -94 21 -99 21 -118 4 -10 -9 -19 -30 -19 -45 0 -33 26 -53 80
-64 72 -14 288 -79 385 -115 907 -342 1608 -1009 1989 -1892 129 -299 220
-640 266 -993 96 -747 -84 -1570 -490 -2235 -112 -183 -289 -429 -264 -365 5
11 9 61 9 110 1 50 7 112 15 138 7 28 10 71 7 102 -7 64 -31 102 -152 241 -47
53 -85 103 -85 111 0 25 162 456 185 494 35 55 89 104 185 167 235 155 350
267 423 415 156 311 132 660 -58 865 -96 104 -233 160 -369 149 -261 -20 -494
-222 -600 -518 -70 -196 -71 -326 -5 -601 22 -95 43 -203 46 -239 8 -94 -1
-130 -98 -387 l-9 -23 -21 20 c-73 68 -172 66 -242 -5 -39 -38 -54 -80 -69
-180 l-12 -85 -42 -18 c-53 -24 -92 -76 -100 -132 -4 -35 0 -54 20 -94 l26
-50 -40 -36 c-56 -51 -82 -115 -79 -190 1 -33 -2 -64 -9 -71 -8 -8 -78 12
-261 73 -138 45 -251 87 -251 91 0 5 -27 56 -60 113 -33 57 -60 108 -60 112 0
5 42 26 93 47 199 84 369 199 512 348 184 190 285 369 342 607 25 102 26 120
30 504 5 365 6 398 21 392 10 -4 37 -9 62 -12 36 -4 48 -1 61 13 26 30 41 110
46 239 4 118 -2 158 -42 281 -6 20 -3 21 107 27 123 6 210 28 311 78 81 41 87
60 47 140 -80 159 -182 265 -312 327 -66 31 -77 40 -72 57 3 11 12 43 20 70
29 99 -1 208 -81 294 -63 67 -125 93 -218 90 l-72 -2 -7 47 c-13 95 -85 178
-188 217 -46 18 -69 20 -141 15 l-85 -6 -65 66 c-214 218 -506 388 -824 479
-185 53 -302 68 -535 69 -177 0 -237 -4 -340 -21 -283 -49 -532 -148 -761
-301 -398 -266 -688 -675 -813 -1146 -55 -205 -58 -233 -66 -716 -7 -440 -8
-459 -33 -561 -35 -147 -75 -237 -185 -418 -204 -336 -267 -509 -279 -761 -15
-325 120 -654 359 -875 39 -36 84 -73 100 -83 15 -9 28 -20 28 -23 0 -4 -37
-19 -82 -34 -147 -48 -255 -113 -362 -220 l-65 -65 -56 63 c-221 242 -478 623
-591 875 -195 434 -290 782 -335 1216 -19 193 -7 603 25 801 40 256 71 387
138 595 283 877 869 1576 1688 2013 223 119 527 236 758 293 59 14 110 31 114
38 22 34 -6 97 -43 95 -8 0 -70 -15 -139 -33z m868 -913 c-3 -67 -3 -68 -33
-70 -409 -33 -771 -183 -1072 -443 -97 -84 -246 -254 -331 -378 -72 -105 -179
-316 -220 -432 -33 -95 -87 -324 -98 -415 -3 -33 -9 -64 -12 -69 -2 -4 -5 -48
-6 -96 -1 -49 -5 -92 -10 -97 -17 -17 1 417 22 537 33 182 119 418 214 585
241 423 599 715 1053 859 161 51 328 82 448 85 l49 1 -4 -67z m292 52 c69 -9
154 -22 190 -31 101 -23 251 -75 245 -85 -4 -5 1 -6 9 -3 34 13 395 -184 381
-207 -3 -5 -1 -18 5 -30 10 -19 9 -20 -9 -15 -12 3 -29 8 -38 11 -10 2 -51 9
-91 15 -40 5 -83 16 -95 24 -38 24 -208 93 -298 120 -115 35 -221 56 -354 70
l-110 11 -3 68 c-3 79 -18 75 168 52z m877 -351 c18 -14 31 -29 28 -35 -3 -5
0 -7 7 -4 7 2 33 -14 58 -36 l45 -40 -49 30 c-27 17 -64 35 -83 42 -18 6 -33
15 -33 21 0 6 6 6 15 -2 11 -9 15 -9 15 -1 0 6 -11 16 -25 21 -14 5 -25 14
-25 20 0 16 10 12 47 -16z m-141 -124 c103 -26 209 -79 257 -128 38 -39 38
-39 31 -101 -6 -57 -8 -61 -28 -55 -48 16 -134 6 -188 -21 -29 -15 -60 -33
-69 -41 -14 -13 -19 -8 -48 45 -38 73 -71 195 -71 268 0 63 -1 63 116 33z
m-927 -483 c50 -91 107 -161 213 -262 111 -106 220 -182 378 -260 110 -55 306
-136 363 -150 16 -4 38 -23 55 -48 15 -22 50 -59 77 -81 l51 -41 17 -115 c9
-64 29 -154 44 -200 25 -74 28 -99 27 -200 -2 -179 -73 -691 -115 -827 -64
-206 -193 -396 -378 -558 -215 -187 -411 -302 -596 -350 -91 -24 -257 -25
-343 -2 -223 59 -473 218 -683 433 -193 200 -279 363 -328 629 -32 172 -69
448 -81 602 -11 139 -11 142 15 224 28 90 59 257 70 381 l7 77 206 82 c431
170 639 299 812 501 37 44 85 113 106 154 22 41 41 74 44 74 3 0 20 -28 39
-63z m1597 -141 c30 -30 34 -40 34 -88 0 -48 -4 -58 -32 -85 -41 -39 -85 -49
-129 -30 -45 19 -69 47 -76 90 -8 51 3 86 39 119 25 23 39 28 80 28 44 0 54
-4 84 -34z m535 -241 c66 -24 165 -92 217 -151 50 -56 100 -139 90 -149 -3 -4
-39 -18 -79 -32 -58 -20 -95 -26 -169 -27 -122 -1 -174 9 -164 32 40 92 47
127 36 191 -6 36 -20 78 -32 94 -12 15 -20 30 -18 31 34 28 62 31 119 11z
m-505 -467 c70 -30 171 -30 243 2 53 23 54 23 68 4 59 -76 87 -192 80 -324 -5
-101 -12 -130 -31 -130 -6 0 -56 22 -111 49 -165 81 -273 214 -293 360 -5 34
-8 61 -7 61 2 0 24 -10 51 -22z m1387 -381 c64 -32 136 -106 173 -179 42 -84
57 -169 51 -303 -13 -287 -134 -479 -427 -675 -143 -96 -246 -193 -282 -265
-14 -28 -51 -122 -81 -210 -31 -88 -61 -175 -67 -192 l-12 -33 -34 26 c-18 14
-51 28 -74 31 -22 3 -40 9 -40 12 0 4 21 63 46 132 111 299 107 288 112 394 4
91 0 116 -37 270 -75 311 -73 441 11 637 76 179 221 321 383 375 25 8 75 12
131 10 75 -2 100 -7 147 -30z m-4408 -412 c9 -77 23 -180 30 -230 7 -49 11
-92 9 -94 -9 -10 -65 24 -102 62 -48 49 -81 118 -88 185 -5 46 -3 50 63 139
37 51 69 90 70 85 1 -4 9 -70 18 -147z m2800 64 c67 -91 68 -91 62 -142 -10
-82 -63 -176 -121 -214 -26 -18 -54 -33 -60 -33 -9 0 -6 42 10 160 13 88 26
196 30 240 3 44 8 80 9 80 1 0 32 -41 70 -91z m-3355 -230 c-6 -24 -13 -55
-16 -69 -23 -111 -57 -208 -139 -399 -109 -254 -138 -346 -154 -487 -35 -326
84 -658 321 -900 164 -168 33 -112 -148 62 -88 86 -126 137 -187 254 -72 136
-106 264 -114 420 -12 253 55 460 246 763 81 129 146 256 173 339 24 75 35 85
18 17z m4031 -1108 c33 -34 35 -47 12 -95 -17 -36 -23 -39 -114 -51 l-46 -7 7
59 c4 33 13 69 19 81 26 49 80 55 122 13z m-2683 -122 c236 -148 397 -197 612
-186 175 9 334 68 543 203 37 24 70 44 72 44 3 0 5 -89 5 -197 l0 -198 -236
-245 c-130 -135 -240 -247 -245 -248 -5 -2 -26 4 -47 15 -54 27 -220 26 -282
-2 l-43 -20 -244 250 -243 250 0 198 c0 108 3 197 6 197 3 0 49 -27 102 -61z
m2925 -167 c70 -68 204 -221 241 -276 30 -45 34 -95 10 -152 -12 -29 -14 -55
-9 -109 7 -82 -1 -109 -51 -170 -27 -33 -37 -57 -45 -107 -13 -83 -56 -155
-145 -243 -100 -98 -384 -331 -384 -314 0 2 18 51 40 109 22 58 40 115 40 126
0 31 -23 54 -135 134 l-100 72 -55 -6 c-30 -3 -70 -8 -89 -12 -27 -5 -37 -3
-48 12 -16 22 -17 55 -1 88 13 30 96 65 174 73 51 5 117 -16 305 -100 47 -21
60 -24 80 -13 27 13 38 59 19 81 -21 26 -302 138 -357 143 -47 4 -109 -5 -157
-24 -13 -5 -16 2 -16 40 0 59 24 85 105 115 136 51 130 52 315 -28 181 -78
214 -85 232 -46 23 51 4 65 -193 148 -101 43 -198 77 -215 77 -17 0 -57 -9
-89 -20 -84 -29 -89 -28 -82 21 8 62 45 93 151 129 50 16 99 30 110 30 10 0
81 -27 157 -60 252 -109 257 -111 280 -68 16 29 -12 63 -79 97 -40 21 -70 46
-100 86 l-44 57 -111 -6 c-62 -4 -142 -9 -179 -12 -64 -6 -68 -5 -93 21 -30
33 -32 55 -7 85 15 18 47 27 212 55 107 19 209 31 225 28 18 -3 53 -27 88 -61z
m-1145 -482 c3 0 2 -105 -1 -232 -8 -319 -37 -423 -153 -556 -40 -45 -178
-142 -188 -131 -2 2 -15 24 -28 48 -66 117 -185 237 -324 323 l-75 46 81 27
c252 84 506 274 583 436 l32 67 34 -14 c18 -8 36 -14 39 -14z m-2338 -27 c66
-148 286 -325 525 -421 55 -22 112 -44 128 -47 27 -7 26 -8 -30 -42 -153 -92
-260 -194 -343 -330 -17 -29 -35 -53 -39 -53 -19 0 -130 81 -174 126 -55 58
-110 157 -132 240 -15 58 -34 322 -35 476 l0 77 33 10 c17 5 35 10 39 10 4 1
16 -20 28 -46z m2989 -589 l69 -46 -45 -126 c-25 -70 -51 -144 -57 -165 -6
-20 -18 -43 -26 -51 -24 -24 -225 -136 -228 -127 -2 6 62 187 160 446 16 44
32 88 35 98 8 25 15 22 92 -29z m-1815 -140 c3 -9 6 -31 6 -49 0 -34 23 -155
35 -187 7 -16 -2 -18 -90 -18 l-97 0 7 33 c17 80 34 184 35 210 0 26 2 27 49
27 35 0 51 -4 55 -16z"/>
<path d="M5932 7464 c10 -10 20 -16 22 -13 3 3 -5 11 -17 18 -21 13 -21 12 -5
-5z"/>
<path d="M4352 5969 c-102 -17 -210 -65 -281 -125 -36 -30 -41 -68 -11 -84 16
-8 35 -2 102 34 169 91 288 98 487 27 123 -44 155 -45 174 -4 8 19 7 28 -9 50
-27 36 -133 79 -239 98 -96 16 -142 17 -223 4z"/>
<path d="M5688 5970 c-74 -12 -204 -56 -240 -81 -32 -23 -38 -68 -12 -93 22
-22 41 -20 122 13 210 87 382 77 554 -31 39 -24 50 -27 67 -18 28 14 27 51 -1
78 -40 37 -141 92 -205 112 -74 23 -207 32 -285 20z"/>
<path d="M4362 5675 c-68 -19 -106 -39 -165 -86 -45 -35 -52 -38 -98 -32 -44
5 -49 4 -49 -13 0 -47 62 -94 123 -94 24 0 41 8 63 31 27 29 92 69 112 69 5 0
5 -16 -1 -38 -8 -32 -7 -45 9 -78 67 -138 254 -94 254 59 l0 48 31 -18 c17
-10 44 -35 61 -55 33 -42 71 -50 87 -20 13 25 -8 64 -67 125 -96 99 -233 138
-360 102z"/>
<path d="M5660 5668 c-54 -18 -77 -34 -132 -88 -65 -65 -86 -104 -74 -135 11
-31 51 -16 112 43 l59 57 6 -58 c7 -62 29 -96 81 -123 91 -47 201 41 184 147
-5 29 -3 39 7 39 18 0 85 -45 114 -76 40 -43 128 -22 168 40 24 37 11 49 -46
43 -45 -6 -52 -3 -91 29 -115 97 -254 126 -388 82z"/>
<path d="M5282 5652 c-7 -5 -22 -33 -34 -63 -17 -44 -22 -82 -26 -211 -5 -176
-1 -204 29 -213 38 -12 44 8 45 158 1 103 6 159 19 202 29 100 30 107 10 122
-22 15 -25 16 -43 5z"/>
<path d="M4910 4935 c-26 -32 -4 -60 78 -98 106 -50 160 -50 262 -1 80 38 90
47 90 81 0 39 -43 41 -117 4 -80 -39 -120 -39 -201 -1 -72 34 -94 37 -112 15z"/>
<path d="M4475 4771 c-65 -40 -105 -108 -105 -179 0 -43 14 -62 47 -62 20 0
23 5 23 35 0 53 22 97 69 137 42 36 53 71 25 82 -23 9 -26 8 -59 -13z"/>
<path d="M5702 4778 c-20 -20 -14 -36 27 -69 47 -37 71 -83 71 -133 0 -40 24
-61 53 -45 12 7 17 23 17 60 0 67 -18 106 -73 157 -48 43 -74 51 -95 30z"/>
<path d="M4540 4635 c-12 -14 -11 -21 5 -51 30 -56 131 -170 192 -217 89 -68
143 -95 228 -117 215 -55 417 -1 585 157 101 95 164 184 156 219 -8 29 -22 30
-162 9 -254 -37 -549 -39 -805 -5 -175 23 -184 23 -199 5z m392 -117 c176 -11
430 -4 583 18 l40 6 -61 -60 c-205 -198 -523 -199 -746 -2 -52 45 -61 66 -25
56 12 -3 106 -11 209 -18z"/>
<path d="M4971 4122 c-15 -28 6 -49 59 -61 59 -14 127 -14 189 0 61 13 77 29
61 59 -11 20 -16 21 -63 13 -66 -10 -129 -10 -189 0 -41 7 -48 6 -57 -11z"/>
<path d="M7905 5482 c-234 -81 -401 -398 -355 -676 25 -155 76 -242 168 -284
47 -21 65 -24 131 -20 63 4 88 11 141 39 134 71 246 224 291 396 26 101 29
257 6 333 -54 181 -215 270 -382 212z"/>
</g>
</svg>
